<?xml version="1.0" encoding="UTF-8" standalone="no"?>
<svg
   fill="#000000"
   viewBox="0 0 19.2 19.2"
   width="192px"
   height="192px"
   version="1.1"
   id="svg1171"
   sodipodi:docname="app.svg"
   inkscape:version="1.1.1 (1:1.1+202109281949+c3084ef5ed)"
   xmlns:inkscape="http://www.inkscape.org/namespaces/inkscape"
   xmlns:sodipodi="http://sodipodi.sourceforge.net/DTD/sodipodi-0.dtd"
   xmlns="http://www.w3.org/2000/svg"
   xmlns:svg="http://www.w3.org/2000/svg">
  <sodipodi:namedview
     id="namedview5"
     pagecolor="#ffffff"
     bordercolor="#666666"
     borderopacity="1.0"
     inkscape:pageshadow="2"
     inkscape:pageopacity="0.0"
     inkscape:pagecheckerboard="0"
     showgrid="false"
     scale-x="0.1"
     inkscape:zoom="1.9873603"
     inkscape:cx="16.101761"
     inkscape:cy="50.569593"
     inkscape:window-width="1920"
     inkscape:window-height="1019"
     inkscape:window-x="0"
     inkscape:window-y="32"
     inkscape:window-maximized="1"
     inkscape:current-layer="svg1171" />
  <defs
     id="defs1175" />
  <path
     d="M 2,2 V 14.666667 C 2,16.057031 3.142969,17.2 4.5333333,17.2 H 14.666667 C 16.057031,17.2 17.2,16.057031 17.2,14.666667 V 5.7999999 H 13.4 V 2 Z M 3.2666667,3.2666667 H 12.133334 V 14.666667 c 0,0.465104 0.138541,0.890624 0.356249,1.266666 H 4.5333333 c -0.7075523,0 -1.2666666,-0.559114 -1.2666666,-1.266666 z M 4.5333333,5.7999999 V 7.0666666 H 10.866666 V 5.7999999 Z M 13.4,7.0666666 h 2.533333 v 7.6000004 c 0,0.707552 -0.559114,1.266666 -1.266666,1.266666 C 13.959114,15.933333 13.4,15.374219 13.4,14.666667 Z M 4.5333333,8.3333333 V 9.5999991 H 7.0666666 V 8.3333333 Z m 3.8,0 V 9.5999991 H 10.866666 V 8.3333333 Z m -3.8,2.5333327 v 1.266668 h 2.5333333 v -1.266668 z m 3.8,0 v 1.266668 h 2.5333327 v -1.266668 z m -3.8,2.533334 v 1.266667 H 7.0666666 V 13.4 Z m 3.8,0 v 1.266667 H 10.866666 V 13.4 Z"
     id="path1169"
     style="stroke-width:1.26666" />
</svg>
